<svg width="13" height="22" viewBox="0 0 13 22" fill="none" xmlns="http://www.w3.org/2000/svg">
<path d="M11.5051 6.91875C11.5051 6.68669 11.4129 6.46413 11.2488 6.30003C11.0847 6.13594 10.8621 6.04375 10.6301 6.04375L3.63007 6C3.39801 6 3.17545 6.09219 3.01136 6.25628C2.84726 6.42038 2.75507 6.64294 2.75507 6.875C2.75507 7.10706 2.84726 7.32962 3.01136 7.49372C3.17545 7.65781 3.39801 7.75 3.63007 7.75H8.49507L1.25882 15.0038C1.17681 15.0851 1.11172 15.1819 1.06729 15.2885C1.02287 15.3951 1 15.5095 1 15.625C1 15.7405 1.02287 15.8549 1.06729 15.9615C1.11172 16.0681 1.17681 16.1649 1.25882 16.2462C1.34017 16.3283 1.43694 16.3934 1.54357 16.4378C1.6502 16.4822 1.76456 16.5051 1.88007 16.5051C1.99558 16.5051 2.10995 16.4822 2.21658 16.4378C2.32321 16.3934 2.41998 16.3283 2.50132 16.2462L9.75507 8.9925V13.875C9.75507 14.1071 9.84726 14.3296 10.0114 14.4937C10.1754 14.6578 10.398 14.75 10.6301 14.75C10.8621 14.75 11.0847 14.6578 11.2488 14.4937C11.4129 14.3296 11.5051 14.1071 11.5051 13.875V6.91875Z" fill="white"/>
</svg>
