<svg width="35" height="35" viewBox="0 0 35 35" fill="none" xmlns="http://www.w3.org/2000/svg">
<g clip-path="url(#clip0_28_139)">
<path d="M32.8125 14.2188H31.3359L27.5379 5.67383C27.366 5.28722 27.0857 4.95876 26.7309 4.72823C26.3762 4.4977 25.9622 4.37501 25.5391 4.375H9.46094C9.03785 4.37501 8.62384 4.4977 8.26907 4.72823C7.9143 4.95876 7.63399 5.28722 7.46211 5.67383L3.66406 14.2188H2.1875C1.89742 14.2188 1.61922 14.334 1.4141 14.5391C1.20898 14.7442 1.09375 15.0224 1.09375 15.3125C1.09375 15.6026 1.20898 15.8808 1.4141 16.0859C1.61922 16.291 1.89742 16.4062 2.1875 16.4062H3.28125V27.3438C3.28125 27.9239 3.51172 28.4803 3.92195 28.8905C4.33219 29.3008 4.88859 29.5312 5.46875 29.5312H8.75C9.33016 29.5312 9.88656 29.3008 10.2968 28.8905C10.707 28.4803 10.9375 27.9239 10.9375 27.3438V25.1562H24.0625V27.3438C24.0625 27.9239 24.293 28.4803 24.7032 28.8905C25.1134 29.3008 25.6698 29.5312 26.25 29.5312H29.5312C30.1114 29.5312 30.6678 29.3008 31.078 28.8905C31.4883 28.4803 31.7188 27.9239 31.7188 27.3438V16.4062H32.8125C33.1026 16.4062 33.3808 16.291 33.5859 16.0859C33.791 15.8808 33.9062 15.6026 33.9062 15.3125C33.9062 15.0224 33.791 14.7442 33.5859 14.5391C33.3808 14.334 33.1026 14.2188 32.8125 14.2188ZM9.46094 6.5625H25.5391L28.942 14.2188H6.05801L9.46094 6.5625ZM8.75 27.3438H5.46875V25.1562H8.75V27.3438ZM26.25 27.3438V25.1562H29.5312V27.3438H26.25ZM29.5312 22.9688H5.46875V16.4062H29.5312V22.9688ZM7.65625 19.6875C7.65625 19.3974 7.77148 19.1192 7.9766 18.9141C8.18172 18.709 8.45992 18.5938 8.75 18.5938H10.9375C11.2276 18.5938 11.5058 18.709 11.7109 18.9141C11.916 19.1192 12.0312 19.3974 12.0312 19.6875C12.0312 19.9776 11.916 20.2558 11.7109 20.4609C11.5058 20.666 11.2276 20.7812 10.9375 20.7812H8.75C8.45992 20.7812 8.18172 20.666 7.9766 20.4609C7.77148 20.2558 7.65625 19.9776 7.65625 19.6875ZM22.9688 19.6875C22.9688 19.3974 23.084 19.1192 23.2891 18.9141C23.4942 18.709 23.7724 18.5938 24.0625 18.5938H26.25C26.5401 18.5938 26.8183 18.709 27.0234 18.9141C27.2285 19.1192 27.3438 19.3974 27.3438 19.6875C27.3438 19.9776 27.2285 20.2558 27.0234 20.4609C26.8183 20.666 26.5401 20.7812 26.25 20.7812H24.0625C23.7724 20.7812 23.4942 20.666 23.2891 20.4609C23.084 20.2558 22.9688 19.9776 22.9688 19.6875Z" fill="#005C99"/>
</g>
<defs>
<clipPath id="clip0_28_139">
<rect width="35" height="35" fill="white"/>
</clipPath>
</defs>
</svg>
