  <svg xmlns="http://www.w3.org/2000/svg" viewBox="0 0 1440 464" fill="none" preserveAspectRatio="none">
    <path d="M0 220.524C28.4127 168.515 88.2213 100.894 125.217 165.464C162.213 230.034 147.036 220.524 237.628 262.069C328.221 303.614 337.707 377.194 348.617 416.236C359.526 455.278 392 487.5 433.992 433.255C475.984 379.009 528.854 335.148 544.032 372.188C559.209 409.228 686.798 290.6 690.119 235.54C693.439 180.48 709.565 158.456 735.652 138.935C761.739 119.414 841.423 129.925 841.423 129.925L940.553 165.464L1012.65 106.9C1012.65 106.9 974.229 31.3178 1075.73 58.3474C1177.23 85.3769 1159.21 -12.2298 1223.72 3.78785C1288.22 19.8055 1231.78 165.464 1231.78 165.464V226.53L1273.04 329.642C1273.04 329.642 1338.02 350.665 1297.23 372.188C1256.44 393.711 1340.87 387.205 1340.87 387.205C1340.87 387.205 1372.72 349.163 1404.5 372.188C1436.28 395.213 1440 329.642 1440 329.642" stroke="#292B2E" stroke-opacity="0.5" stroke-width="3" stroke-dasharray="10 10"/>
  </svg>