<svg width="35" height="36" viewBox="0 0 35 36" fill="none" xmlns="http://www.w3.org/2000/svg">
<g clip-path="url(#clip0_28_75)">
<path d="M31.111 6.33325H3.88878C3.37308 6.33325 2.8785 6.53811 2.51385 6.90277C2.1492 7.26742 1.94434 7.762 1.94434 8.2777V27.7221C1.94434 28.2378 2.1492 28.7324 2.51385 29.0971C2.8785 29.4617 3.37308 29.6666 3.88878 29.6666H31.111C31.6267 29.6666 32.1213 29.4617 32.4859 29.0971C32.8506 28.7324 33.0554 28.2378 33.0554 27.7221V8.2777C33.0554 7.762 32.8506 7.26742 32.4859 6.90277C32.1213 6.53811 31.6267 6.33325 31.111 6.33325ZM29.6138 27.7221H5.50267L12.3082 20.6833L10.9082 19.3319L3.88878 26.5944V9.75547L15.9735 21.7819C16.3378 22.144 16.8306 22.3473 17.3443 22.3473C17.858 22.3473 18.3509 22.144 18.7152 21.7819L31.111 9.45409V26.468L23.9554 19.3124L22.5846 20.6833L29.6138 27.7221ZM5.16239 8.2777H29.536L17.3443 20.4013L5.16239 8.2777Z" fill="white"/>
</g>
<defs>
<clipPath id="clip0_28_75">
<rect width="35" height="35" fill="white" transform="translate(0 0.5)"/>
</clipPath>
</defs>
</svg>
