<svg width="35" height="35" viewBox="0 0 35 35" fill="none" xmlns="http://www.w3.org/2000/svg">
<path d="M12.3958 21.1459H22.6041M12.3958 13.8542H17.4999M20.6645 30.4646C26.7662 30.0607 31.6253 25.1315 32.0249 18.9438C32.1022 17.7334 32.1022 16.4792 32.0249 15.2688C31.6253 9.08255 26.7662 4.1563 20.6645 3.74942C18.5571 3.61054 16.4428 3.61054 14.3353 3.74942C8.23368 4.15484 3.37451 9.08255 2.97493 15.2703C2.89768 16.494 2.89768 17.7215 2.97493 18.9453C3.12076 21.1984 4.11681 23.2853 5.29076 25.0469C5.97181 26.2792 5.52264 27.8178 4.81243 29.1638C4.30201 30.1336 4.04535 30.6178 4.25097 30.9678C4.45514 31.3178 4.91451 31.3294 5.83181 31.3513C7.64743 31.395 8.87097 30.8817 9.84222 30.1657C10.392 29.7588 10.6676 29.5561 10.8572 29.5328C11.0468 29.5094 11.4216 29.664 12.1683 29.9703C12.8391 30.2473 13.6193 30.418 14.3339 30.4661C16.412 30.6032 18.5835 30.6032 20.666 30.4661" stroke="white" stroke-width="2" stroke-linecap="round" stroke-linejoin="round"/>
</svg>
