<svg width="24" height="25" viewBox="0 0 24 25" fill="none" xmlns="http://www.w3.org/2000/svg">
<path d="M12.006 4.59912C9.336 4.59912 6.668 5.38312 4.361 6.95212H0L1.963 9.08712C1.06861 9.902 0.441617 10.9684 0.1644 12.1461C-0.112816 13.3239 -0.0272945 14.5579 0.409731 15.6862C0.846756 16.8145 1.61484 17.7841 2.61309 18.4679C3.61134 19.1516 4.79306 19.5173 6.003 19.5171C7.51474 19.518 8.97074 18.9464 10.078 17.9171L12 20.0091L13.922 17.9191C15.0283 18.9478 16.4834 19.5188 17.994 19.5171C19.585 19.5171 21.1108 18.8853 22.2359 17.7605C23.3611 16.6357 23.9935 15.1101 23.994 13.5191C23.9951 12.6847 23.8215 11.8594 23.4844 11.0961C23.1474 10.3328 22.6543 9.64845 22.037 9.08712L24 6.95212H19.65C17.3962 5.41767 14.7325 4.59772 12.006 4.59912ZM12 6.55912C13.531 6.55912 15.063 6.86212 16.504 7.46212C13.943 8.44212 12 10.7341 12 13.4041C12 10.7331 10.058 8.44212 7.496 7.46212C8.92298 6.8668 10.4538 6.55923 12 6.55912ZM6.002 9.46112C6.53504 9.46112 7.06285 9.56611 7.55531 9.7701C8.04777 9.97408 8.49523 10.2731 8.87215 10.65C9.24906 11.0269 9.54804 11.4744 9.75203 11.9668C9.95601 12.4593 10.061 12.9871 10.061 13.5201C10.061 14.0532 9.95601 14.581 9.75203 15.0734C9.54804 15.5659 9.24906 16.0134 8.87215 16.3903C8.49523 16.7672 8.04777 17.0662 7.55531 17.2701C7.06285 17.4741 6.53504 17.5791 6.002 17.5791C4.92549 17.5791 3.89306 17.1515 3.13185 16.3903C2.37064 15.6291 1.943 14.5966 1.943 13.5201C1.943 12.4436 2.37064 11.4112 3.13185 10.65C3.89306 9.88877 4.92549 9.46112 6.002 9.46112ZM17.994 9.46312C18.5268 9.46293 19.0545 9.56768 19.5469 9.77141C20.0392 9.97513 20.4866 10.2738 20.8635 10.6505C21.2404 11.0271 21.5395 11.4743 21.7436 11.9665C21.9477 12.4587 22.0528 12.9863 22.053 13.5191C22.0532 14.052 21.9484 14.5796 21.7447 15.072C21.541 15.5643 21.2423 16.0117 20.8656 16.3886C20.489 16.7656 20.0418 17.0646 19.5496 17.2687C19.0574 17.4728 18.5298 17.5779 17.997 17.5781C16.9209 17.5785 15.8887 17.1514 15.1275 16.3908C14.3663 15.6301 13.9384 14.5982 13.938 13.5221C13.9376 12.446 14.3647 11.4138 15.1254 10.6526C15.886 9.89139 16.9179 9.46352 17.994 9.46312ZM6.002 11.3931C5.43762 11.3931 4.89635 11.6173 4.49728 12.0164C4.0982 12.4155 3.874 12.9567 3.874 13.5211C3.874 14.0855 4.0982 14.6268 4.49728 15.0258C4.89635 15.4249 5.43762 15.6491 6.002 15.6491C6.56638 15.6491 7.10765 15.4249 7.50672 15.0258C7.9058 14.6268 8.13 14.0855 8.13 13.5211C8.13 12.9567 7.9058 12.4155 7.50672 12.0164C7.10765 11.6173 6.56638 11.3931 6.002 11.3931ZM17.994 11.3931C17.4296 11.3931 16.8884 11.6173 16.4893 12.0164C16.0902 12.4155 15.866 12.9567 15.866 13.5211C15.866 14.0855 16.0902 14.6268 16.4893 15.0258C16.8884 15.4249 17.4296 15.6491 17.994 15.6491C18.5584 15.6491 19.0996 15.4249 19.4987 15.0258C19.8978 14.6268 20.122 14.0855 20.122 13.5211C20.122 12.9567 19.8978 12.4155 19.4987 12.0164C19.0996 11.6173 18.5584 11.3931 17.994 11.3931Z" fill="white"/>
</svg>
